<svg width="195" height="28" viewBox="0 0 195 28" fill="none" xmlns="http://www.w3.org/2000/svg">
<path d="M29 14C29 21.732 22.5081 28 14.5 28C6.49187 28 0 21.732 0 14C0 6.26801 6.49187 0 14.5 0C22.5081 0 29 6.26801 29 14Z" fill="#09021E" fill-opacity="0.92"/>
<path fill-rule="evenodd" clip-rule="evenodd" d="M8.63342 6.97158C8.62734 7.2776 8.6712 7.42496 8.89614 7.42548H12.2407C13.774 7.5677 15.1845 8.2732 16.0135 9.8639C16.5167 10.8292 16.8007 12.2212 16.9549 13.3452C17.0213 13.8309 17.0522 14.2853 16.9814 14.4958C16.948 14.5949 16.898 14.6617 16.8307 14.6935C16.4581 14.8696 16.0647 14.2637 15.8554 13.9741C14.7963 12.5098 13.2634 12.0138 11.6953 11.9152H8.81537C8.6382 11.9516 8.57523 12.1062 8.59347 12.3449V13.9931C8.58261 14.5405 8.34942 14.7269 7.88608 14.542L3.62568 10.5884L3.09937 10.1001C2.75675 9.73605 2.89788 9.40435 3.20533 9.11835L3.53058 8.81541L7.61294 5.01529C8.11145 4.55113 8.63342 4.42687 8.63342 5.42709V6.97158ZM19.4001 21.0286C19.4058 20.722 19.3624 20.5747 19.1374 20.5747H15.7929C14.2595 20.4324 12.8491 19.727 12.0201 18.1363C11.5168 17.1709 11.2324 15.779 11.0787 14.655C11.0122 14.1693 10.9814 13.7148 11.0522 13.5043C11.0856 13.4052 11.1356 13.3385 11.2029 13.3066C11.5754 13.1305 11.9689 13.7359 12.1782 14.026C13.2373 15.4904 14.7702 15.9864 16.3383 16.085H19.2182C19.3954 16.0485 19.4579 15.8935 19.4401 15.6547V14.007C19.4505 13.4597 19.6841 13.2733 20.1471 13.4581L24.4079 17.4112L24.9342 17.9001C25.2764 18.2641 25.1357 18.5958 24.8282 18.8818L24.503 19.1847L20.4202 22.9849C19.9221 23.449 19.4001 23.5728 19.4001 22.5731V21.0286Z" fill="#783EFD" fill-opacity="0.91"/>
<path d="M49.775 8.15H44.5V5.525H58.225V8.15H52.95V23H49.775V8.15ZM58.3418 11H61.3918V12.925C61.8751 12.275 62.5585 11.7917 63.4418 11.475C64.3418 11.1583 65.3668 11 66.5168 11V13.4C65.3001 13.4 64.2418 13.5917 63.3418 13.975C62.4585 14.3417 61.8418 14.925 61.4918 15.725V23H58.3418V11ZM71.7994 23.375C70.3661 23.375 69.1911 23 68.2744 22.25C67.3577 21.4833 66.8994 20.4583 66.8994 19.175C66.8994 17.8417 67.3327 16.8 68.1994 16.05C69.0661 15.3 70.2827 14.925 71.8494 14.925C73.3661 14.925 74.6744 15.2333 75.7744 15.85V15.525C75.7744 14.675 75.5077 14.0583 74.9744 13.675C74.4577 13.2917 73.6161 13.1 72.4494 13.1C71.7161 13.1 70.9911 13.175 70.2744 13.325C69.5577 13.4583 68.9244 13.65 68.3744 13.9V11.425C68.8744 11.1917 69.5411 11 70.3744 10.85C71.2244 10.7 72.0411 10.625 72.8244 10.625C74.9077 10.625 76.4494 11.075 77.4494 11.975C78.4494 12.8583 78.9494 14.0917 78.9494 15.675V23H75.9744V21.825C75.4577 22.325 74.8661 22.7083 74.1994 22.975C73.5494 23.2417 72.7494 23.375 71.7994 23.375ZM72.5744 21.075C73.2744 21.075 73.9077 20.9417 74.4744 20.675C75.0411 20.3917 75.4744 20.0083 75.7744 19.525V18.2C74.8577 17.55 73.8077 17.225 72.6244 17.225C70.9411 17.225 70.0994 17.875 70.0994 19.175C70.0994 19.8083 70.3077 20.2833 70.7244 20.6C71.1577 20.9167 71.7744 21.075 72.5744 21.075ZM81.8281 11H84.8781V12.625C85.4448 11.9417 86.1198 11.4417 86.9031 11.125C87.6865 10.7917 88.5115 10.625 89.3781 10.625C90.9948 10.625 92.2031 11.0667 93.0031 11.95C93.8031 12.8167 94.2031 13.975 94.2031 15.425V23H91.0531V15.725C91.0531 13.975 90.2365 13.1 88.6031 13.1C87.8865 13.1 87.2115 13.275 86.5781 13.625C85.9448 13.9583 85.4115 14.4667 84.9781 15.15V23H81.8281V11ZM101.762 23.375C100.895 23.375 99.9702 23.275 98.9869 23.075C98.0036 22.875 97.2369 22.6 96.6869 22.25V19.575C97.3369 19.975 98.1119 20.3 99.0119 20.55C99.9119 20.7833 100.762 20.9 101.562 20.9C102.362 20.9 102.945 20.8333 103.312 20.7C103.679 20.55 103.862 20.2833 103.862 19.9C103.862 19.6 103.762 19.3583 103.562 19.175C103.379 18.975 103.07 18.8 102.637 18.65C102.22 18.4833 101.57 18.2833 100.687 18.05C99.6869 17.7667 98.8952 17.475 98.3119 17.175C97.7452 16.875 97.3119 16.5 97.0119 16.05C96.7286 15.5833 96.5869 14.9833 96.5869 14.25C96.5869 13.05 97.0619 12.15 98.0119 11.55C98.9619 10.9333 100.245 10.625 101.862 10.625C102.695 10.625 103.52 10.7083 104.337 10.875C105.17 11.025 105.82 11.2417 106.287 11.525V14.1C105.787 13.8 105.179 13.5583 104.462 13.375C103.745 13.1917 103.012 13.1 102.262 13.1C101.445 13.1 100.829 13.1833 100.412 13.35C99.9952 13.5 99.7869 13.8 99.7869 14.25C99.7869 14.55 99.8952 14.7917 100.112 14.975C100.345 15.1417 100.645 15.2917 101.012 15.425C101.379 15.5417 102.045 15.725 103.012 15.975C104.045 16.2583 104.854 16.5667 105.437 16.9C106.02 17.2333 106.437 17.6333 106.687 18.1C106.937 18.5667 107.062 19.15 107.062 19.85C107.062 20.9167 106.604 21.775 105.687 22.425C104.787 23.0583 103.479 23.375 101.762 23.375ZM113.596 23.375C112.163 23.375 110.988 23 110.071 22.25C109.155 21.4833 108.696 20.4583 108.696 19.175C108.696 17.8417 109.13 16.8 109.996 16.05C110.863 15.3 112.08 14.925 113.646 14.925C115.163 14.925 116.471 15.2333 117.571 15.85V15.525C117.571 14.675 117.305 14.0583 116.771 13.675C116.255 13.2917 115.413 13.1 114.246 13.1C113.513 13.1 112.788 13.175 112.071 13.325C111.355 13.4583 110.721 13.65 110.171 13.9V11.425C110.671 11.1917 111.338 11 112.171 10.85C113.021 10.7 113.838 10.625 114.621 10.625C116.705 10.625 118.246 11.075 119.246 11.975C120.246 12.8583 120.746 14.0917 120.746 15.675V23H117.771V21.825C117.255 22.325 116.663 22.7083 115.996 22.975C115.346 23.2417 114.546 23.375 113.596 23.375ZM114.371 21.075C115.071 21.075 115.705 20.9417 116.271 20.675C116.838 20.3917 117.271 20.0083 117.571 19.525V18.2C116.655 17.55 115.605 17.225 114.421 17.225C112.738 17.225 111.896 17.875 111.896 19.175C111.896 19.8083 112.105 20.2833 112.521 20.6C112.955 20.9167 113.571 21.075 114.371 21.075ZM129.662 23.375C128.262 23.375 127.028 23.125 125.962 22.625C124.912 22.125 124.095 21.4 123.512 20.45C122.928 19.5 122.637 18.3583 122.637 17.025C122.637 15.6917 122.928 14.55 123.512 13.6C124.112 12.6333 124.937 11.9 125.987 11.4C127.053 10.8833 128.295 10.625 129.712 10.625C131.578 10.625 133.07 10.9917 134.187 11.725V14.25C133.103 13.4833 131.72 13.1 130.037 13.1C128.753 13.1 127.728 13.425 126.962 14.075C126.212 14.7083 125.837 15.6917 125.837 17.025C125.837 18.3417 126.212 19.3167 126.962 19.95C127.728 20.5833 128.737 20.9 129.987 20.9C131.67 20.9 133.12 20.5 134.337 19.7V22.2C133.737 22.6 133.053 22.8917 132.287 23.075C131.537 23.275 130.662 23.375 129.662 23.375ZM141.658 23.375C140.341 23.375 139.341 23.0083 138.658 22.275C137.975 21.5417 137.633 20.5083 137.633 19.175V13.4H135.833V11H137.633V7.4H140.783V11H143.658V13.4H140.783V18.775C140.783 19.5417 140.925 20.0917 141.208 20.425C141.491 20.7417 142.008 20.9 142.758 20.9C143.275 20.9 143.783 20.7833 144.283 20.55V22.95C143.566 23.2333 142.691 23.375 141.658 23.375ZM148.3 8.9C147.8 8.9 147.375 8.73333 147.025 8.4C146.692 8.06667 146.525 7.65 146.525 7.15C146.525 6.65 146.692 6.23333 147.025 5.9C147.375 5.55 147.8 5.375 148.3 5.375C148.8 5.375 149.225 5.55 149.575 5.9C149.925 6.23333 150.1 6.65 150.1 7.15C150.1 7.65 149.925 8.06667 149.575 8.4C149.225 8.73333 148.8 8.9 148.3 8.9ZM146.7 11H149.9V23H146.7V11ZM159.618 23.375C158.218 23.375 156.984 23.125 155.918 22.625C154.868 22.1083 154.051 21.375 153.468 20.425C152.884 19.4583 152.593 18.3167 152.593 17C152.593 15.7167 152.876 14.6 153.443 13.65C154.026 12.6833 154.851 11.9417 155.918 11.425C156.984 10.8917 158.218 10.625 159.618 10.625C161.018 10.625 162.243 10.8917 163.293 11.425C164.359 11.9417 165.184 12.6833 165.768 13.65C166.351 14.6 166.643 15.7167 166.643 17C166.643 18.3167 166.351 19.4583 165.768 20.425C165.184 21.375 164.359 22.1083 163.293 22.625C162.243 23.125 161.018 23.375 159.618 23.375ZM159.618 20.9C160.768 20.9 161.684 20.5417 162.368 19.825C163.051 19.0917 163.393 18.15 163.393 17C163.393 15.7833 163.051 14.8333 162.368 14.15C161.701 13.45 160.784 13.1 159.618 13.1C158.451 13.1 157.526 13.45 156.843 14.15C156.176 14.8333 155.843 15.7833 155.843 17C155.843 18.15 156.184 19.0917 156.868 19.825C157.551 20.5417 158.468 20.9 159.618 20.9ZM169.133 11H172.183V12.625C172.749 11.9417 173.424 11.4417 174.208 11.125C174.991 10.7917 175.816 10.625 176.683 10.625C178.299 10.625 179.508 11.0667 180.308 11.95C181.108 12.8167 181.508 13.975 181.508 15.425V23H178.358V15.725C178.358 13.975 177.541 13.1 175.908 13.1C175.191 13.1 174.516 13.275 173.883 13.625C173.249 13.9583 172.716 14.4667 172.283 15.15V23H169.133V11ZM189.067 23.375C188.2 23.375 187.275 23.275 186.292 23.075C185.308 22.875 184.542 22.6 183.992 22.25V19.575C184.642 19.975 185.417 20.3 186.317 20.55C187.217 20.7833 188.067 20.9 188.867 20.9C189.667 20.9 190.25 20.8333 190.617 20.7C190.983 20.55 191.167 20.2833 191.167 19.9C191.167 19.6 191.067 19.3583 190.867 19.175C190.683 18.975 190.375 18.8 189.942 18.65C189.525 18.4833 188.875 18.2833 187.992 18.05C186.992 17.7667 186.2 17.475 185.617 17.175C185.05 16.875 184.617 16.5 184.317 16.05C184.033 15.5833 183.892 14.9833 183.892 14.25C183.892 13.05 184.367 12.15 185.317 11.55C186.267 10.9333 187.55 10.625 189.167 10.625C190 10.625 190.825 10.7083 191.642 10.875C192.475 11.025 193.125 11.2417 193.592 11.525V14.1C193.092 13.8 192.483 13.5583 191.767 13.375C191.05 13.1917 190.317 13.1 189.567 13.1C188.75 13.1 188.133 13.1833 187.717 13.35C187.3 13.5 187.092 13.8 187.092 14.25C187.092 14.55 187.2 14.7917 187.417 14.975C187.65 15.1417 187.95 15.2917 188.317 15.425C188.683 15.5417 189.35 15.725 190.317 15.975C191.35 16.2583 192.158 16.5667 192.742 16.9C193.325 17.2333 193.742 17.6333 193.992 18.1C194.242 18.5667 194.367 19.15 194.367 19.85C194.367 20.9167 193.908 21.775 192.992 22.425C192.092 23.0583 190.783 23.375 189.067 23.375Z" fill="#09021E" fill-opacity="0.92"/>
</svg>
